<svg version="1.1" xmlns="http://www.w3.org/2000/svg" xmlns:xlink="http://www.w3.org/1999/xlink" width="25" height="24" viewBox="0 0 25 24">
<path id="Printer" d="M24.960,16.747 C24.782,17.735 23.921,18.493 22.760,18.468 C21.936,18.451 21.112,18.464 20.288,18.464 C20.197,18.464 20.105,18.464 20.000,18.464 C20.000,18.596 20.000,18.691 20.000,18.786 C20.000,20.157 19.995,21.529 20.005,22.900 C20.007,23.173 19.925,23.369 19.688,23.498 C14.896,23.498 10.104,23.498 5.312,23.498 C5.069,23.369 4.995,23.162 4.997,22.893 C5.003,21.523 5.000,20.154 5.000,18.784 C5.000,18.683 5.000,18.582 5.000,18.464 C4.860,18.464 4.757,18.464 4.654,18.464 C3.805,18.464 2.956,18.470 2.107,18.461 C1.416,18.454 0.826,18.193 0.434,17.616 C0.236,17.323 0.141,16.960 -0.000,16.628 C-0.000,13.936 -0.000,11.244 -0.000,8.552 C0.119,8.043 0.316,7.580 0.726,7.231 C1.151,6.870 1.642,6.714 2.190,6.714 C7.623,6.716 13.056,6.716 18.489,6.717 C19.903,6.717 21.318,6.739 22.732,6.710 C23.858,6.686 24.774,7.407 24.960,8.434 C24.968,8.474 24.987,8.513 25.000,8.552 C25.000,11.244 25.000,13.936 25.000,16.628 C24.987,16.668 24.968,16.706 24.960,16.747 zM5.851,22.638 C10.299,22.638 14.728,22.638 19.153,22.638 C19.153,20.122 19.153,17.626 19.153,15.119 C14.717,15.119 10.294,15.119 5.851,15.119 C5.851,17.641 5.851,20.143 5.851,22.638 zM23.794,7.931 C23.496,7.630 23.126,7.554 22.721,7.554 C19.302,7.557 15.883,7.556 12.464,7.556 C9.036,7.556 5.608,7.556 2.180,7.559 C1.375,7.559 0.838,8.080 0.837,8.873 C0.832,11.337 0.831,13.801 0.837,16.265 C0.839,17.095 1.354,17.610 2.165,17.624 C2.278,17.626 2.391,17.624 2.504,17.624 C3.326,17.624 4.148,17.624 5.000,17.624 C5.000,16.673 4.999,15.765 5.000,14.856 C5.001,14.420 5.147,14.269 5.574,14.269 C10.208,14.268 14.842,14.268 19.476,14.268 C19.820,14.268 19.990,14.430 20.000,14.775 C20.008,15.054 20.000,15.334 20.000,15.614 C20.000,16.275 20.000,16.937 20.000,17.599 C20.048,17.611 20.072,17.622 20.095,17.622 C21.033,17.623 21.970,17.636 22.907,17.619 C23.645,17.606 24.161,17.075 24.163,16.325 C24.172,13.843 24.168,11.361 24.165,8.880 C24.165,8.517 24.055,8.195 23.794,7.931 zM3.319,11.751 C2.415,11.745 1.664,10.981 1.668,10.072 C1.672,9.144 2.425,8.392 3.347,8.396 C4.249,8.400 5.004,9.165 5.000,10.073 C4.997,10.997 4.234,11.758 3.319,11.751 zM3.318,9.237 C2.868,9.246 2.499,9.627 2.504,10.081 C2.508,10.536 2.880,10.905 3.335,10.908 C3.782,10.911 4.164,10.528 4.163,10.078 C4.161,9.609 3.779,9.229 3.318,9.237 zM16.972,17.623 C16.018,17.627 15.064,17.626 14.110,17.626 C12.090,17.626 10.069,17.627 8.049,17.620 C7.919,17.619 7.767,17.583 7.663,17.510 C7.416,17.337 7.478,16.941 7.763,16.836 C7.873,16.796 8.000,16.787 8.119,16.787 C9.585,16.784 11.050,16.785 12.516,16.785 C13.998,16.785 15.482,16.785 16.964,16.785 C17.284,16.785 17.491,16.949 17.490,17.200 C17.490,17.457 17.296,17.622 16.972,17.623 zM16.893,19.300 C15.419,19.303 13.945,19.302 12.471,19.302 C10.980,19.302 9.489,19.302 7.997,19.303 C7.776,19.303 7.578,19.224 7.543,19.001 C7.521,18.864 7.586,18.668 7.683,18.570 C7.769,18.483 7.954,18.467 8.094,18.466 C9.143,18.458 10.193,18.462 11.242,18.462 C13.140,18.462 15.039,18.462 16.938,18.467 C17.062,18.468 17.213,18.487 17.302,18.559 C17.395,18.635 17.485,18.792 17.472,18.901 C17.459,19.024 17.350,19.164 17.243,19.242 C17.157,19.304 17.012,19.300 16.893,19.300 zM7.765,20.192 C7.844,20.161 7.933,20.144 8.018,20.144 C11.017,20.141 14.017,20.141 17.018,20.140 C17.241,20.140 17.432,20.237 17.463,20.457 C17.482,20.594 17.405,20.783 17.307,20.884 C17.228,20.966 17.051,20.978 16.918,20.978 C15.435,20.984 13.953,20.982 12.470,20.982 C12.470,20.981 12.470,20.981 12.470,20.981 C10.996,20.981 9.522,20.983 8.048,20.976 C7.918,20.975 7.766,20.941 7.662,20.867 C7.415,20.692 7.481,20.304 7.765,20.192 zM19.615,5.870 C19.385,5.887 19.181,5.698 19.171,5.423 C19.157,5.030 19.167,4.637 19.167,4.199 C18.706,4.199 18.275,4.199 17.843,4.199 C17.348,4.199 16.854,4.202 16.360,4.199 C15.998,4.196 15.837,4.038 15.835,3.669 C15.830,2.830 15.833,1.992 15.833,1.153 C15.833,1.059 15.833,0.965 15.833,0.857 C12.500,0.857 9.189,0.857 5.833,0.857 C5.833,0.944 5.833,1.035 5.833,1.127 C5.833,2.524 5.836,3.922 5.829,5.320 C5.828,5.451 5.794,5.603 5.722,5.709 C5.553,5.960 5.160,5.900 5.052,5.616 C5.016,5.521 5.002,5.412 5.002,5.309 C4.998,3.737 4.998,2.165 4.999,0.592 C5.000,0.146 5.145,0.003 5.599,0.003 C9.113,0.002 12.627,0.000 16.140,0.010 C16.296,0.010 16.492,0.082 16.601,0.190 C17.691,1.266 18.769,2.355 19.841,3.449 C19.929,3.538 19.989,3.692 19.993,3.819 C20.010,4.342 20.004,4.866 20.001,5.391 C19.999,5.653 19.831,5.855 19.615,5.870 zM16.667,1.520 C16.667,2.018 16.667,2.521 16.667,3.024 C16.667,3.127 16.667,3.229 16.667,3.346 C17.308,3.346 17.909,3.346 18.465,3.346 C17.878,2.750 17.277,2.139 16.667,1.520 z"  />
</svg>
